#!OML:ASF H:\Dans Jumps\Project 1\Capture day 1\Session 1\subject.ASF
:FULLY-SPECIFIED
:DEGREES
166
root 0.0535542 17.624 -14.2014 8.34378 0.572488 -1.46515
lowerback -2.51735 -0.525444 0.541847
upperback 3.22329 -0.800895 1.70851
thorax 4.7565 -0.411757 1.4092
lowerneck -12.232 0.25349 -2.37431
upperneck 32.0877 0.56359 1.28763
head 12.6669 0.127911 0.990232
rclavicle 1.04362e-014 5.96354e-015
rhumerus -22.5812 -20.6747 -79.2751
rradius 23.2359
rwrist 33.0458
rhand -20.3796 -26.6866
rfingers 7.12502
rthumb 5.97337 -56.5824
lclavicle 1.04362e-014 5.96354e-015
lhumerus -18.3763 7.19276 86.788
lradius 15.5969
lwrist -0.223847
lhand -26.247 -5.08165
lfingers 7.12502
lthumb 0.307185 24.8979
rfemur -14.9407 -1.36992 19.0795
rtibia 19.2076
rfoot -12.0822 -2.02529
rtoes 9.02117
lfemur -14.0857 5.3876 -16.7804
ltibia 17.7884
lfoot -9.10524 5.52935
ltoes -6.63773
167
root 0.0544515 17.6218 -14.2023 8.29025 0.601727 -1.45885
lowerback -2.49624 -0.532834 0.536596
upperback 3.22351 -0.810455 1.71524
thorax 4.74509 -0.416816 1.41864
lowerneck -12.2478 0.246536 -2.39801
upperneck 32.0448 0.555756 1.30139
head 12.6524 0.123804 0.998198
rclavicle 9.74045e-015 -7.95139e-015
rhumerus -22.5738 -20.5938 -79.2209
rradius 23.292
rwrist 32.9806
rhand -20.4288 -26.6799
rfingers 7.12502
rthumb 5.92583 -56.5771
lclavicle 9.74045e-015 -7.95139e-015
lhumerus -18.3142 6.97799 86.8116
lradius 15.7309
lwrist 0.0215326
lhand -26.2833 -5.15167
lfingers 7.12502
lthumb 0.272087 24.8279
rfemur -14.9188 -1.35017 19.0698
rtibia 19.284
rfoot -12.1155 -2.09054
rtoes 8.9407
lfemur -14.0633 5.36892 -16.7839
ltibia 17.8454
lfoot -9.13764 5.51525
ltoes -6.63698
168
root 0.0554713 17.6196 -14.2031 8.23776 0.630221 -1.44755
lowerback -2.47546 -0.540648 0.528025
upperback 3.22366 -0.820357 1.72023
thorax 4.73383 -0.422127 1.42812
lowerneck -12.2691 0.242689 -2.41789
upperneck 32.0088 0.552546 1.31228
head 12.642 0.121777 1.00515
rclavicle -2.38542e-015 2.38542e-015
rhumerus -22.5671 -20.5358 -79.1611
rradius 23.3367
rwrist 32.9313
rhand -20.4752 -26.6794
rfingers 7.12502
rthumb 5.88101 -56.5778
lclavicle -2.38542e-015 2.38542e-015
lhumerus -18.2609 6.76304 86.829
lradius 15.8591
lwrist 0.258398
lhand -26.3311 -5.24518
lfingers 7.12502
lthumb 0.225985 24.7344
rfemur -14.8994 -1.333 19.0542
rtibia 19.363
rfoot -12.1499 -2.15343
rtoes 8.86594
lfemur -14.0356 5.34897 -16.7932
ltibia 17.8915
lfoot -9.16686 5.50126
ltoes -6.64151
169
root 0.0565397 17.6174 -14.204 8.19018 0.656577 -1.43425
lowerback -2.45775 -0.547951 0.517661
upperback 3.22164 -0.829484 1.72478
thorax 4.72206 -0.427101 1.43818
lowerneck -12.2926 0.241163 -2.4361
upperneck 31.9806 0.552481 1.32277
head 12.6352 0.12123 1.01219
rclavicle 8.64713e-015 -5.56597e-015
rhumerus -22.5662 -20.4849 -79.0986
rradius 23.3785
rwrist 32.881
rhand -20.5066 -26.7054
rfingers 7.12502
rthumb 5.85071 -56.6047
lclavicle 8.64713e-015 -5.56597e-015
lhumerus -18.2163 6.55783 86.84
lradius 15.9769
lwrist 0.467438
lhand -26.3687 -5.28349
lfingers 7.12502
lthumb 0.189637 24.6962
rfemur -14.8865 -1.31604 19.0363
rtibia 19.4425
rfoot -12.184 -2.21503
rtoes 8.77302
lfemur -14.0073 5.32895 -16.8046
ltibia 17.9265
lfoot -9.1939 5.48761
ltoes -6.63683
170
root 0.0577475 17.6154 -14.2047 8.14685 0.677071 -1.4167
lowerback -2.44562 -0.553951 0.503709
upperback 3.21939 -0.836737 1.72797
thorax 4.71322 -0.431245 1.44894
lowerneck -12.3179 0.240998 -2.45564
upperneck 31.9561 0.554527 1.33415
head 12.6302 0.12154 1.02016
rclavicle 4.96962e-016 5.56597e-015
rhumerus -22.5684 -20.4424 -79.0338
rradius 23.4167
rwrist 32.835
rhand -20.5335 -26.741
rfingers 7.12502
rthumb 5.82478 -56.641
lclavicle 4.96962e-016 5.56597e-015
lhumerus -18.1804 6.36916 86.8444
lradius 16.0912
lwrist 0.661605
lhand -26.3821 -5.26739
lfingers 7.12502
lthumb 0.176713 24.7123
rfemur -14.878 -1.30131 19.013
rtibia 19.5199
rfoot -12.2158 -2.26862
rtoes 8.68661
lfemur -13.9769 5.31337 -16.8217
ltibia 17.9524
lfoot -9.22122 5.47235
ltoes -6.62049
171
root 0.0590689 17.6135 -14.2051 8.11048 0.689985 -1.39736
lowerback -2.44201 -0.557246 0.489301
upperback 3.21553 -0.840377 1.72905
thorax 4.70745 -0.433565 1.45793
lowerneck -12.3419 0.241301 -2.47218
upperneck 31.9355 0.556247 1.34611
head 12.6266 0.122107 1.02781
rclavicle -7.95139e-016 3.18055e-015
rhumerus -22.5771 -20.4074 -78.9677
rradius 23.4525
rwrist 32.7881
rhand -20.5611 -26.7797
rfingers 7.12502
rthumb 5.7981 -56.6804
lclavicle -7.95139e-016 3.18055e-015
lhumerus -18.1546 6.19803 86.8412
lradius 16.2044
lwrist 0.837243
lhand -26.3791 -5.1798
lfingers 7.12502
lthumb 0.179599 24.7999
rfemur -14.8756 -1.28888 18.9871
rtibia 19.5932
rfoot -12.2457 -2.31189
rtoes 8.60573
lfemur -13.9477 5.30292 -16.8415
ltibia 17.9704
lfoot -9.24998 5.45663
ltoes -6.58633
172
root 0.0604916 17.6118 -14.2054 8.08046 0.696123 -1.37909
lowerback -2.4466 -0.558937 0.475578
upperback 3.21012 -0.842041 1.73084
thorax 4.7047 -0.434891 1.46733
lowerneck -12.3618 0.241189 -2.48649
upperneck 31.9146 0.557983 1.35391
head 12.6221 0.12241 1.03345
rclavicle 2.98177e-016 -1.23246e-014
rhumerus -22.5883 -20.3884 -78.8958
rradius 23.4769
rwrist 32.7606
rhand -20.5895 -26.8084
rfingers 7.12502
rthumb 5.7707 -56.7098
lclavicle 2.98177e-016 -1.23246e-014
lhumerus -18.1383 6.0541 86.8319
lradius 16.3177
lwrist 1.00064
lhand -26.3561 -5.04222
lfingers 7.12502
lthumb 0.201765 24.9374
rfemur -14.878 -1.27667 18.9617
rtibia 19.6613
rfoot -12.2736 -2.34753
rtoes 8.52395
lfemur -13.9198 5.29859 -16.8608
ltibia 17.9819
lfoot -9.28033 5.43854
ltoes -6.54531
173
root 0.0619634 17.6103 -14.2056 8.05638 0.695713 -1.36111
lowerback -2.46007 -0.558722 0.461984
upperback 3.2037 -0.841284 1.73254
thorax 4.70588 -0.435008 1.47667
lowerneck -12.366 0.241286 -2.48786
upperneck 31.8809 0.560639 1.34782
head 12.6089 0.122983 1.03138
rclavicle -8.44835e-015 7.15625e-015
rhumerus -22.6019 -20.387 -78.8193
rradius 23.4914
rwrist 32.75
rhand -20.6097 -26.8361
rfingers 7.12502
rthumb 5.75117 -56.738
lclavicle -8.44835e-015 7.15625e-015
lhumerus -18.1268 5.92617 86.8183
lradius 16.4379
lwrist 1.19239
lhand -26.2904 -4.78914
lfingers 7.12502
lthumb 0.265299 25.1904
rfemur -14.8838 -1.26568 18.9364
rtibia 19.7228
rfoot -12.3006 -2.37464
rtoes 8.45645
lfemur -13.8935 5.3002 -16.8804
ltibia 17.9886
lfoot -9.31322 5.41872
ltoes -6.50017
174
root 0.0634691 17.6089 -14.2056 8.03541 0.691429 -1.3459
lowerback -2.47632 -0.557561 0.450266
upperback 3.19532 -0.839408 1.73546
thorax 4.70657 -0.434521 1.48627
lowerneck -12.3512 0.241043 -2.47384
upperneck 31.8305 0.563746 1.32444
head 12.585 0.123502 1.01976
rclavicle -6.06293e-015 4.37326e-015
rhumerus -22.6194 -20.41 -78.7351
rradius 23.4935
rwrist 32.7658
rhand -20.618 -26.8656
rfingers 7.12502
rthumb 5.74317 -56.7678
lclavicle -6.06293e-015 4.37326e-015
lhumerus -18.1253 5.81223 86.801
lradius 16.5626
lwrist 1.39112
lhand -26.1982 -4.46826
lfingers 7.12502
lthumb 0.354281 25.5112
rfemur -14.8891 -1.25577 18.9138
rtibia 19.7776
rfoot -12.3274 -2.39507
rtoes 8.40621
lfemur -13.8673 5.30463 -16.897
ltibia 17.9927
lfoot -9.34803 5.3992
ltoes -6.4507
175
root 0.0649579 17.6077 -14.2055 8.01706 0.684813 -1.33343
lowerback -2.49437 -0.555458 0.440329
upperback 3.18554 -0.836413 1.73965
thorax 4.70679 -0.433435 1.49624
lowerneck -12.3329 0.239982 -2.46747
upperneck 31.7799 0.565726 1.30677
head 12.5603 0.123343 1.0115
rclavicle -1.98785e-015 7.95139e-016
rhumerus -22.6413 -20.4556 -78.6445
rradius 23.4875
rwrist 32.8021
rhand -20.6167 -26.8888
rfingers 7.12502
rthumb 5.74438 -56.7909
lclavicle -1.98785e-015 7.95139e-016
lhumerus -18.1279 5.71863 86.779
lradius 16.6824
lwrist 1.58045
lhand -26.0601 -4.02973
lfingers 7.12502
lthumb 0.487696 25.9495
rfemur -14.8932 -1.2457 18.894
rtibia 19.826
rfoot -12.3557 -2.41103
rtoes 8.3764
lfemur -13.8423 5.31051 -16.9109
ltibia 17.9953
lfoot -9.38397 5.38038
ltoes -6.40671
176
root 0.0664166 17.6065 -14.2055 7.99963 0.678448 -1.32342
lowerback -2.51059 -0.553385 0.431956
upperback 3.17475 -0.833517 1.74472
thorax 4.70492 -0.432355 1.50625
lowerneck -12.3211 0.240616 -2.46458
upperneck 31.7364 0.569507 1.29454
head 12.5398 0.12421 1.00631
rclavicle 1.39149e-015 6.36111e-015
rhumerus -22.6689 -20.509 -78.5515
rradius 23.4791
rwrist 32.8415
rhand -20.6112 -26.9039
rfingers 7.12502
rthumb 5.7497 -56.8059
lclavicle 1.39149e-015 6.36111e-015
lhumerus -18.1321 5.63893 86.7523
lradius 16.7817
lwrist 1.75334
lhand -25.9383 -3.63942
lfingers 7.12502
lthumb 0.605347 26.3395
rfemur -14.8944 -1.23723 18.8768
rtibia 19.8684
rfoot -12.3848 -2.42261
rtoes 8.36871
lfemur -13.8186 5.31751 -16.9223
ltibia 17.9986
lfoot -9.42107 5.36244
ltoes -6.38189
177
root 0.0678674 17.6055 -14.2055 7.98326 0.673014 -1.31603
lowerback -2.52371 -0.550849 0.426128
upperback 3.16284 -0.830083 1.7505
thorax 4.70006 -0.430923 1.51563
lowerneck -12.3218 0.242517 -2.47412
upperneck 31.7096 0.573724 1.29802
head 12.5288 0.125674 1.00963
rclavicle 5.06901e-015 -2.78299e-015
rhumerus -22.7049 -20.5622 -78.4582
rradius 23.4743
rwrist 32.871
rhand -20.6015 -26.9167
rfingers 7.12502
rthumb 5.75907 -56.8185
lclavicle 5.06901e-015 -2.78299e-015
lhumerus -18.1338 5.56569 86.7222
lradius 16.8426
lwrist 1.88155
lhand -25.8429 -3.29974
lfingers 7.12502
lthumb 0.69749 26.6789
rfemur -14.8939 -1.23231 18.8628
rtibia 19.9055
rfoot -12.4132 -2.42965
rtoes 8.36601
lfemur -13.7978 5.32227 -16.9309
ltibia 18.0035
lfoot -9.45736 5.34765
ltoes -6.35395
178
root 0.0693137 17.6044 -14.2057 7.96535 0.668078 -1.31152
lowerback -2.53192 -0.548588 0.422907
upperback 3.15197 -0.827114 1.75702
thorax 4.69349 -0.429647 1.52433
lowerneck -12.334 0.243544 -2.49956
upperneck 31.6938 0.575744 1.31837
head 12.5246 0.126346 1.02205
rclavicle 3.18055e-015 -3.97569e-016
rhumerus -22.7459 -20.6116 -78.3672
rradius 23.4713
rwrist 32.8959
rhand -20.5988 -26.912
rfingers 7.12502
rthumb 5.76172 -56.8137
lclavicle 3.18055e-015 -3.97569e-016
lhumerus -18.1315 5.51218 86.6862
lradius 16.8632
lwrist 1.95451
lhand -25.7755 -3.04894
lfingers 7.12502
lthumb 0.762551 26.9294
rfemur -14.8898 -1.22745 18.8519
rtibia 19.938
rfoot -12.4391 -2.43578
rtoes 8.3632
lfemur -13.7777 5.3258 -16.9365
ltibia 18.0116
lfoot -9.49252 5.33573
ltoes -6.33721
179
root 0.0708062 17.6035 -14.2061 7.94726 0.663196 -1.30986
lowerback -2.53562 -0.546661 0.423188
upperback 3.14193 -0.824711 1.76372
thorax 4.68517 -0.428533 1.53124
lowerneck -12.3578 0.244141 -2.53051
upperneck 31.6871 0.576821 1.34526
head 12.5266 0.126704 1.03797
rclavicle -4.77083e-015 -1.47101e-014
rhumerus -22.7926 -20.6483 -78.2805
rradius 23.4719
rwrist 32.91
rhand -20.5992 -26.8978
rfingers 7.12502
rthumb 5.76133 -56.7995
lclavicle -4.77083e-015 -1.47101e-014
lhumerus -18.1271 5.47197 86.6442
lradius 16.8523
lwrist 1.97824
lhand -25.7153 -2.8184
lfingers 7.12502
lthumb 0.820706 27.1598
rfemur -14.8837 -1.22464 18.844
rtibia 19.9659
rfoot -12.4613 -2.43879
rtoes 8.35996
lfemur -13.7608 5.3277 -16.9395
ltibia 18.0244
lfoot -9.52716 5.32749
ltoes -6.32125
